<svg xmlns="http://www.w3.org/2000/svg" viewBox="7 15 910 526.6">
	<path d="
	M 131 15 L 7 273 L 79 308 L 203 50 Z 
	M 67 239 A 1 1 0 0 0 53 272 A 1 1 0 0 0 67 239 Z 
	M 106 283 L 203 80 L 269 99 L 388 46 C 403 44 411 45 424 52 C 378 72 354 75 339 98 C 324 128 326 144 321 160 C 315 189 298 209 317 236 C 319 243 391 292 431 176 L 460 165 L 463 165 L 546 214 L 732 357 C 746 380 729 417 690 405 L 554 313 C 547 309 539 319 546 324 L 676 411 C 693 437 668 468 638 458 L 524 383 C 517 381 513 387 516 393 L 615 460 C 633 489 606 520 573 505 L 506 461 C 497 458 493 467 499 472 L 547 505 C 554 520 536 554 500 537 L 448 503 C 456 487 493 466 473 424 C 465 412 453 401 427 406 C 438 371 399 326 353 358 C 342 312 290 303 263 346 C 252 308 208 293 178 328 Z 
	" fill="#0e76bd"/>

	<path d="
	M 717 75 L 813 275 C 789 288 738 303 697 314 L 553 203 L 469 153 C 465 151 460 151 456 152 L 423 164 C 420 166 419 168 418 171 C 411 192 407 202 399 213 C 367 255 313 241 323 204 C 326 183 331 181 333 168 C 348 101 341 96 397 79 L 470 47 C 499 37 511 37 551 53 C 586 65 610 72 645 88 C 686 98 691 81 717 75 Z 
	M 917 272 L 794 15 L 721 49 L 845 307 Z
	M 428 507 L 458 468 C 481 431 444 404 416 426 L 383 469 C 356 509 406 535 428 507 Z 
	M 365 470 L 409 412 C 430 380 392 344 360 370 L 311 436 C 296 472 341 498 365 470 Z 
	M 300 427 L 336 378 C 350 349 316 315 284 341 L 245 393 C 223 431 275 462 300 427 Z 
	M 231 388 L 245 369 C 261 345 230 304 195 330 L 180 349 C 165 383 201 413 231 388 Z 
	M 861 273 A 1 1 0 0 0 861 237 A 1 1 0 0 0 861 273 Z
	" fill="#25aae2"/>
</svg>
